<svg xmlns="http://www.w3.org/2000/svg" version="1.1" xmlns:xlink="http://www.w3.org/1999/xlink" xmlns:svgjs="http://svgjs.dev/svgjs" width="2000" height="358" viewBox="0 0 2000 358"><g transform="matrix(1,0,0,1,-1.212120872435662,-1.1048855585213175)"><svg viewBox="0 0 396 71" data-background-color="#ffffff" preserveAspectRatio="xMidYMid meet" height="358" width="2000" xmlns="http://www.w3.org/2000/svg" xmlns:xlink="http://www.w3.org/1999/xlink"><g id="tight-bounds" transform="matrix(1,0,0,1,0.24000006725776757,0.21912534819836083)"><svg viewBox="0 0 395.52 70.56174930360328" height="70.56174930360328" width="395.52"><g><svg viewBox="0 0 499.94788995548345 89.19194396213659" height="70.56174930360328" width="395.52"><g transform="matrix(1,0,0,1,0,12.326817146720764)"><svg viewBox="0 0 395.52 64.53830966869506" height="64.53830966869506" width="395.52"><g><svg viewBox="0 0 395.52 64.53830966869506" height="64.53830966869506" width="395.52"><g><svg viewBox="0 0 395.52 64.53830966869506" height="64.53830966869506" width="395.52"><g transform="matrix(1,0,0,1,0,0)"><svg width="395.52" viewBox="4.150000095367432 -35.599998474121094 221.8400115966797 36.19999694824219" height="64.53830966869506" data-palette-color="#c8c8c8"><path d="M30.6-28.5L12.25-28.5 12.25-19.25 28.45-19.25 28.45-12.75 12.25-12.75 12.25 0 4.15 0 4.15-35 30.6-35 30.6-28.5ZM36.1 0L36.1-35 44.2-35 44.2 0 36.1 0ZM76.59-35L84.59-35 84.59 0 77.95 0 60.5-21.25 60.5 0 52.5 0 52.5-35 59.2-35 76.59-13.75 76.59-35ZM100.14 0L100.14-28.4 88.94-28.4 88.94-35 119.44-35 119.44-28.4 108.24-28.4 108.24 0 100.14 0ZM131.84-6.5L150.89-6.5 150.89 0 123.79 0 123.79-35 150.24-35 150.24-28.5 131.84-28.5 131.84-20.9 148.09-20.9 148.09-14.6 131.84-14.6 131.84-6.5ZM173.99 0.6Q168.64 0.6 164.31-1.73 159.99-4.05 157.51-8.18 155.04-12.3 155.04-17.5L155.04-17.5Q155.04-22.7 157.51-26.83 159.99-30.95 164.31-33.27 168.64-35.6 174.04-35.6L174.04-35.6Q178.59-35.6 182.26-34 185.94-32.4 188.44-29.4L188.44-29.4 183.24-24.6Q179.69-28.7 174.44-28.7L174.44-28.7Q171.19-28.7 168.64-27.28 166.09-25.85 164.66-23.3 163.24-20.75 163.24-17.5L163.24-17.5Q163.24-14.25 164.66-11.7 166.09-9.15 168.64-7.73 171.19-6.3 174.44-6.3L174.44-6.3Q179.69-6.3 183.24-10.45L183.24-10.45 188.44-5.65Q185.94-2.6 182.24-1 178.54 0.6 173.99 0.6L173.99 0.6ZM217.89-35L225.99-35 225.99 0 217.89 0 217.89-14.35 201.99-14.35 201.99 0 193.89 0 193.89-35 201.99-35 201.99-21.2 217.89-21.2 217.89-35Z" opacity="1" transform="matrix(1,0,0,1,0,0)" fill="#000000" class="undefined-text-0" data-fill-palette-color="primary" id="text-0"></path></svg></g></svg></g></svg></g></svg></g><g transform="matrix(1,0,0,1,410.7559459933468,0)"><svg viewBox="0 0 89.19194396213659 89.19194396213659" height="89.19194396213659" width="89.19194396213659"><g data-palette-color="#c8c8c8"><rect width="24.379131349650667" height="89.19194396213659" fill="#000000" stroke="transparent" data-fill-palette-color="accent" x="0" fill-opacity="1"></rect><rect width="24.379131349650667" height="89.19194396213659" fill="#000000" stroke="transparent" data-fill-palette-color="accent" x="29.730647987378862" fill-opacity="0.75"></rect><rect width="24.379131349650667" height="89.19194396213659" fill="#000000" stroke="transparent" data-fill-palette-color="accent" x="59.461295974757725" fill-opacity="0.5"></rect></g></svg></g></svg></g><defs></defs></svg><rect width="395.52" height="70.56174930360328" fill="none" stroke="none" visibility="hidden"></rect></g></svg></g></svg>